<mxfile host="Electron" agent="Mozilla/5.0 (Windows NT 10.0; Win64; x64) AppleWebKit/537.36 (KHTML, like Gecko) draw.io/24.7.17 Chrome/128.0.6613.36 Electron/32.0.1 Safari/537.36" version="24.7.17">
  <diagram name="Page-1" id="ED0QoJ134O5V7Y6sYKOI">
    <mxGraphModel dx="2420" dy="1040" grid="0" gridSize="10" guides="1" tooltips="1" connect="1" arrows="1" fold="1" page="1" pageScale="1" pageWidth="827" pageHeight="1169" math="0" shadow="0">
      <root>
        <mxCell id="0" />
        <mxCell id="1" parent="0" />
        <mxCell id="tgD-yhzEI52AValManxv-13" value="Event manager" style="swimlane;fontStyle=0;childLayout=stackLayout;horizontal=1;startSize=26;horizontalStack=0;resizeParent=1;resizeParentMax=0;resizeLast=0;collapsible=1;marginBottom=0;whiteSpace=wrap;html=1;strokeColor=#d79b00;fillColor=#ffcd28;gradientColor=#ffa500;" parent="1" vertex="1">
          <mxGeometry x="16" y="17" width="206" height="104" as="geometry" />
        </mxCell>
        <mxCell id="tgD-yhzEI52AValManxv-14" value="+ events list" style="text;align=left;verticalAlign=top;spacingLeft=4;spacingRight=4;overflow=hidden;rotatable=0;points=[[0,0.5],[1,0.5]];portConstraint=eastwest;whiteSpace=wrap;html=1;" parent="tgD-yhzEI52AValManxv-13" vertex="1">
          <mxGeometry y="26" width="206" height="26" as="geometry" />
        </mxCell>
        <mxCell id="tgD-yhzEI52AValManxv-15" value="+ user list" style="text;strokeColor=none;fillColor=none;align=left;verticalAlign=top;spacingLeft=4;spacingRight=4;overflow=hidden;rotatable=0;points=[[0,0.5],[1,0.5]];portConstraint=eastwest;whiteSpace=wrap;html=1;" parent="tgD-yhzEI52AValManxv-13" vertex="1">
          <mxGeometry y="52" width="206" height="26" as="geometry" />
        </mxCell>
        <mxCell id="tgD-yhzEI52AValManxv-16" value="+event manager" style="text;strokeColor=none;fillColor=none;align=left;verticalAlign=top;spacingLeft=4;spacingRight=4;overflow=hidden;rotatable=0;points=[[0,0.5],[1,0.5]];portConstraint=eastwest;whiteSpace=wrap;html=1;" parent="tgD-yhzEI52AValManxv-13" vertex="1">
          <mxGeometry y="78" width="206" height="26" as="geometry" />
        </mxCell>
        <mxCell id="tgD-yhzEI52AValManxv-18" value="&lt;p style=&quot;margin:0px;margin-top:4px;text-align:center;&quot;&gt;&lt;br&gt;&lt;b&gt;Event&lt;/b&gt;&lt;/p&gt;&lt;hr size=&quot;1&quot; style=&quot;border-style:solid;&quot;&gt;&lt;p style=&quot;margin:0px;margin-left:4px;&quot;&gt;+eventID: String&lt;br&gt;+name: string&lt;/p&gt;&lt;p style=&quot;margin:0px;margin-left:4px;&quot;&gt;+capacity: int&lt;/p&gt;&lt;hr size=&quot;1&quot; style=&quot;border-style:solid;&quot;&gt;&lt;p style=&quot;margin:0px;margin-left:4px;&quot;&gt;+ bookSlot()&lt;br&gt;+ cancelSlot()&lt;/p&gt;" style="verticalAlign=top;align=left;overflow=fill;html=1;whiteSpace=wrap;" parent="1" vertex="1">
          <mxGeometry x="197" y="217" width="210" height="140" as="geometry" />
        </mxCell>
        <mxCell id="tgD-yhzEI52AValManxv-27" value="" style="endArrow=open;endFill=1;endSize=12;html=1;rounded=0;entryX=0;entryY=0.5;entryDx=0;entryDy=0;exitX=1;exitY=0.5;exitDx=0;exitDy=0;" parent="1" source="tgD-yhzEI52AValManxv-15" target="fhWeLq2fKtromDVjiS6h-3" edge="1">
          <mxGeometry width="160" relative="1" as="geometry">
            <mxPoint x="359.5" y="144" as="sourcePoint" />
            <mxPoint x="359.5" y="194" as="targetPoint" />
          </mxGeometry>
        </mxCell>
        <mxCell id="tgD-yhzEI52AValManxv-30" value="notification" style="swimlane;fontStyle=1;align=center;verticalAlign=top;childLayout=stackLayout;horizontal=1;startSize=26;horizontalStack=0;resizeParent=1;resizeParentMax=0;resizeLast=0;collapsible=1;marginBottom=0;whiteSpace=wrap;html=1;fillColor=#ffcd28;gradientColor=#ffa500;strokeColor=#d79b00;" parent="1" vertex="1">
          <mxGeometry x="275" y="401" width="214" height="94" as="geometry" />
        </mxCell>
        <mxCell id="tgD-yhzEI52AValManxv-31" value="&lt;div&gt;+message: String&lt;/div&gt;&lt;div&gt;+timestamp: Date&lt;/div&gt;" style="text;strokeColor=none;fillColor=none;align=left;verticalAlign=top;spacingLeft=4;spacingRight=4;overflow=hidden;rotatable=0;points=[[0,0.5],[1,0.5]];portConstraint=eastwest;whiteSpace=wrap;html=1;" parent="tgD-yhzEI52AValManxv-30" vertex="1">
          <mxGeometry y="26" width="214" height="34" as="geometry" />
        </mxCell>
        <mxCell id="tgD-yhzEI52AValManxv-32" value="" style="line;strokeWidth=1;fillColor=none;align=left;verticalAlign=middle;spacingTop=-1;spacingLeft=3;spacingRight=3;rotatable=0;labelPosition=right;points=[];portConstraint=eastwest;strokeColor=inherit;" parent="tgD-yhzEI52AValManxv-30" vertex="1">
          <mxGeometry y="60" width="214" height="8" as="geometry" />
        </mxCell>
        <mxCell id="tgD-yhzEI52AValManxv-33" value="+send(to: User)" style="text;strokeColor=none;fillColor=none;align=left;verticalAlign=top;spacingLeft=4;spacingRight=4;overflow=hidden;rotatable=0;points=[[0,0.5],[1,0.5]];portConstraint=eastwest;whiteSpace=wrap;html=1;" parent="tgD-yhzEI52AValManxv-30" vertex="1">
          <mxGeometry y="68" width="214" height="26" as="geometry" />
        </mxCell>
        <mxCell id="tgD-yhzEI52AValManxv-34" value="Notification factory" style="swimlane;fontStyle=1;align=center;verticalAlign=top;childLayout=stackLayout;horizontal=1;startSize=26;horizontalStack=0;resizeParent=1;resizeParentMax=0;resizeLast=0;collapsible=1;marginBottom=0;whiteSpace=wrap;html=1;fillColor=#ffcd28;gradientColor=#ffa500;strokeColor=#d79b00;" parent="1" vertex="1">
          <mxGeometry x="604" y="401" width="212" height="52" as="geometry" />
        </mxCell>
        <mxCell id="tgD-yhzEI52AValManxv-35" value="+Create Notification(type, messages)" style="text;strokeColor=none;fillColor=none;align=left;verticalAlign=top;spacingLeft=4;spacingRight=4;overflow=hidden;rotatable=0;points=[[0,0.5],[1,0.5]];portConstraint=eastwest;whiteSpace=wrap;html=1;" parent="tgD-yhzEI52AValManxv-34" vertex="1">
          <mxGeometry y="26" width="212" height="26" as="geometry" />
        </mxCell>
        <mxCell id="tgD-yhzEI52AValManxv-38" value="SMS Notification" style="swimlane;fontStyle=1;align=center;verticalAlign=top;childLayout=stackLayout;horizontal=1;startSize=26;horizontalStack=0;resizeParent=1;resizeParentMax=0;resizeLast=0;collapsible=1;marginBottom=0;whiteSpace=wrap;html=1;fillColor=#ffcd28;gradientColor=#ffa500;strokeColor=#d79b00;" parent="1" vertex="1">
          <mxGeometry x="280" y="575" width="212" height="86" as="geometry" />
        </mxCell>
        <mxCell id="tgD-yhzEI52AValManxv-39" value="+Phone Number: String" style="text;strokeColor=none;fillColor=none;align=left;verticalAlign=top;spacingLeft=4;spacingRight=4;overflow=hidden;rotatable=0;points=[[0,0.5],[1,0.5]];portConstraint=eastwest;whiteSpace=wrap;html=1;" parent="tgD-yhzEI52AValManxv-38" vertex="1">
          <mxGeometry y="26" width="212" height="26" as="geometry" />
        </mxCell>
        <mxCell id="tgD-yhzEI52AValManxv-40" value="" style="line;strokeWidth=1;fillColor=none;align=left;verticalAlign=middle;spacingTop=-1;spacingLeft=3;spacingRight=3;rotatable=0;labelPosition=right;points=[];portConstraint=eastwest;strokeColor=inherit;" parent="tgD-yhzEI52AValManxv-38" vertex="1">
          <mxGeometry y="52" width="212" height="8" as="geometry" />
        </mxCell>
        <mxCell id="tgD-yhzEI52AValManxv-41" value="+ send (to:user)" style="text;strokeColor=none;fillColor=none;align=left;verticalAlign=top;spacingLeft=4;spacingRight=4;overflow=hidden;rotatable=0;points=[[0,0.5],[1,0.5]];portConstraint=eastwest;whiteSpace=wrap;html=1;" parent="tgD-yhzEI52AValManxv-38" vertex="1">
          <mxGeometry y="60" width="212" height="26" as="geometry" />
        </mxCell>
        <mxCell id="tgD-yhzEI52AValManxv-42" value="Log command" style="swimlane;fontStyle=1;align=center;verticalAlign=top;childLayout=stackLayout;horizontal=1;startSize=26;horizontalStack=0;resizeParent=1;resizeParentMax=0;resizeLast=0;collapsible=1;marginBottom=0;whiteSpace=wrap;html=1;fillColor=#ffcd28;gradientColor=#ffa500;strokeColor=#d79b00;" parent="1" vertex="1">
          <mxGeometry y="687" width="246" height="113" as="geometry" />
        </mxCell>
        <mxCell id="tgD-yhzEI52AValManxv-43" value="+action: String&lt;div&gt;+user: user&lt;/div&gt;" style="text;strokeColor=none;fillColor=none;align=left;verticalAlign=top;spacingLeft=4;spacingRight=4;overflow=hidden;rotatable=0;points=[[0,0.5],[1,0.5]];portConstraint=eastwest;whiteSpace=wrap;html=1;" parent="tgD-yhzEI52AValManxv-42" vertex="1">
          <mxGeometry y="26" width="246" height="42" as="geometry" />
        </mxCell>
        <mxCell id="tgD-yhzEI52AValManxv-44" value="" style="line;strokeWidth=1;fillColor=none;align=left;verticalAlign=middle;spacingTop=-1;spacingLeft=3;spacingRight=3;rotatable=0;labelPosition=right;points=[];portConstraint=eastwest;strokeColor=inherit;" parent="tgD-yhzEI52AValManxv-42" vertex="1">
          <mxGeometry y="68" width="246" height="8" as="geometry" />
        </mxCell>
        <mxCell id="tgD-yhzEI52AValManxv-45" value="+ suggest Events (user)&lt;div&gt;+db connection: Database&lt;/div&gt;" style="text;strokeColor=none;fillColor=none;align=left;verticalAlign=top;spacingLeft=4;spacingRight=4;overflow=hidden;rotatable=0;points=[[0,0.5],[1,0.5]];portConstraint=eastwest;whiteSpace=wrap;html=1;" parent="tgD-yhzEI52AValManxv-42" vertex="1">
          <mxGeometry y="76" width="246" height="37" as="geometry" />
        </mxCell>
        <mxCell id="tgD-yhzEI52AValManxv-46" value="command" style="swimlane;fontStyle=1;align=center;verticalAlign=top;childLayout=stackLayout;horizontal=1;startSize=26;horizontalStack=0;resizeParent=1;resizeParentMax=0;resizeLast=0;collapsible=1;marginBottom=0;whiteSpace=wrap;html=1;fillColor=#ffcd28;gradientColor=#ffa500;strokeColor=#d79b00;" parent="1" vertex="1">
          <mxGeometry x="552" y="891" width="222" height="52" as="geometry" />
        </mxCell>
        <mxCell id="tgD-yhzEI52AValManxv-47" value="+execute()" style="text;strokeColor=none;fillColor=none;align=left;verticalAlign=top;spacingLeft=4;spacingRight=4;overflow=hidden;rotatable=0;points=[[0,0.5],[1,0.5]];portConstraint=eastwest;whiteSpace=wrap;html=1;" parent="tgD-yhzEI52AValManxv-46" vertex="1">
          <mxGeometry y="26" width="222" height="26" as="geometry" />
        </mxCell>
        <mxCell id="tgD-yhzEI52AValManxv-50" value="records" style="text;html=1;align=center;verticalAlign=middle;whiteSpace=wrap;rounded=0;" parent="1" vertex="1">
          <mxGeometry x="111" y="590" width="150" height="30" as="geometry" />
        </mxCell>
        <mxCell id="tgD-yhzEI52AValManxv-51" value="logs&amp;nbsp;" style="text;html=1;align=center;verticalAlign=middle;whiteSpace=wrap;rounded=0;" parent="1" vertex="1">
          <mxGeometry x="-21" y="222" width="90" height="30" as="geometry" />
        </mxCell>
        <mxCell id="tgD-yhzEI52AValManxv-52" value="receives" style="text;html=1;align=center;verticalAlign=middle;whiteSpace=wrap;rounded=0;" parent="1" vertex="1">
          <mxGeometry x="414" y="278" width="90" height="30" as="geometry" />
        </mxCell>
        <mxCell id="tgD-yhzEI52AValManxv-53" value="notifies&lt;div&gt;(observer)&lt;/div&gt;" style="text;html=1;align=center;verticalAlign=middle;whiteSpace=wrap;rounded=0;" parent="1" vertex="1">
          <mxGeometry x="225" y="49" width="90" height="30" as="geometry" />
        </mxCell>
        <mxCell id="tgD-yhzEI52AValManxv-54" value="stores" style="text;html=1;align=center;verticalAlign=middle;resizable=0;points=[];autosize=1;strokeColor=none;fillColor=none;" parent="1" vertex="1">
          <mxGeometry x="67" y="575" width="51" height="26" as="geometry" />
        </mxCell>
        <mxCell id="tgD-yhzEI52AValManxv-55" value="&lt;div&gt;&lt;br&gt;&lt;/div&gt;manages&lt;div&gt;(singleton)&lt;/div&gt;" style="text;html=1;align=center;verticalAlign=middle;resizable=0;points=[];autosize=1;strokeColor=none;fillColor=none;" parent="1" vertex="1">
          <mxGeometry x="98" y="152" width="74" height="55" as="geometry" />
        </mxCell>
        <mxCell id="tgD-yhzEI52AValManxv-56" value="uses" style="text;html=1;align=center;verticalAlign=middle;resizable=0;points=[];autosize=1;strokeColor=none;fillColor=none;" parent="1" vertex="1">
          <mxGeometry x="541.5" y="37" width="43" height="26" as="geometry" />
        </mxCell>
        <mxCell id="tgD-yhzEI52AValManxv-57" value="inherits" style="text;html=1;align=center;verticalAlign=middle;resizable=0;points=[];autosize=1;strokeColor=none;fillColor=none;" parent="1" vertex="1">
          <mxGeometry x="321.5" y="520" width="57" height="26" as="geometry" />
        </mxCell>
        <mxCell id="tgD-yhzEI52AValManxv-59" value="implements" style="text;html=1;align=center;verticalAlign=middle;resizable=0;points=[];autosize=1;strokeColor=none;fillColor=none;" parent="1" vertex="1">
          <mxGeometry x="675" y="152" width="79" height="26" as="geometry" />
        </mxCell>
        <mxCell id="tgD-yhzEI52AValManxv-63" value="" style="endArrow=open;endFill=1;endSize=12;html=1;rounded=0;exitX=0.904;exitY=1.141;exitDx=0;exitDy=0;exitPerimeter=0;entryX=0.566;entryY=0;entryDx=0;entryDy=0;entryPerimeter=0;" parent="1" source="tgD-yhzEI52AValManxv-33" target="fhWeLq2fKtromDVjiS6h-19" edge="1">
          <mxGeometry width="160" relative="1" as="geometry">
            <mxPoint x="665" y="526" as="sourcePoint" />
            <mxPoint x="630" y="512" as="targetPoint" />
            <Array as="points">
              <mxPoint x="468" y="540" />
              <mxPoint x="564" y="540" />
              <mxPoint x="727" y="543" />
            </Array>
          </mxGeometry>
        </mxCell>
        <mxCell id="tgD-yhzEI52AValManxv-64" value="creates" style="text;html=1;align=center;verticalAlign=middle;resizable=0;points=[];autosize=1;strokeColor=none;fillColor=none;" parent="1" vertex="1">
          <mxGeometry x="519" y="408" width="60" height="30" as="geometry" />
        </mxCell>
        <mxCell id="tgD-yhzEI52AValManxv-65" value="" style="endArrow=open;endFill=1;endSize=12;html=1;rounded=0;exitX=0.504;exitY=0.97;exitDx=0;exitDy=0;exitPerimeter=0;entryX=0.5;entryY=0;entryDx=0;entryDy=0;" parent="1" source="tgD-yhzEI52AValManxv-33" target="tgD-yhzEI52AValManxv-38" edge="1">
          <mxGeometry width="160" relative="1" as="geometry">
            <mxPoint x="359" y="504" as="sourcePoint" />
            <mxPoint x="343" y="522" as="targetPoint" />
          </mxGeometry>
        </mxCell>
        <mxCell id="O3LqNvS1LRqUJpRKrXD9-1" value="" style="endArrow=classic;html=1;rounded=0;entryX=0.456;entryY=0;entryDx=0;entryDy=0;exitX=0.477;exitY=1.205;exitDx=0;exitDy=0;exitPerimeter=0;entryPerimeter=0;" parent="1" source="fhWeLq2fKtromDVjiS6h-28" target="tgD-yhzEI52AValManxv-42" edge="1">
          <mxGeometry width="50" height="50" relative="1" as="geometry">
            <mxPoint x="311" y="704" as="sourcePoint" />
            <mxPoint x="570" y="760" as="targetPoint" />
          </mxGeometry>
        </mxCell>
        <mxCell id="fhWeLq2fKtromDVjiS6h-1" value="User" style="swimlane;fontStyle=0;childLayout=stackLayout;horizontal=1;startSize=21;fillColor=#ffcd28;horizontalStack=0;resizeParent=1;resizeParentMax=0;resizeLast=0;collapsible=1;marginBottom=0;whiteSpace=wrap;html=1;strokeColor=#d79b00;gradientColor=#ffa500;" vertex="1" parent="1">
          <mxGeometry x="321.5" y="24" width="219" height="97" as="geometry" />
        </mxCell>
        <mxCell id="fhWeLq2fKtromDVjiS6h-2" value="+ UserID: String" style="text;strokeColor=none;fillColor=none;align=left;verticalAlign=top;spacingLeft=4;spacingRight=4;overflow=hidden;rotatable=0;points=[[0,0.5],[1,0.5]];portConstraint=eastwest;whiteSpace=wrap;html=1;" vertex="1" parent="fhWeLq2fKtromDVjiS6h-1">
          <mxGeometry y="21" width="219" height="26" as="geometry" />
        </mxCell>
        <mxCell id="fhWeLq2fKtromDVjiS6h-3" value="+ name: string" style="text;strokeColor=none;fillColor=none;align=left;verticalAlign=top;spacingLeft=4;spacingRight=4;overflow=hidden;rotatable=0;points=[[0,0.5],[1,0.5]];portConstraint=eastwest;whiteSpace=wrap;html=1;" vertex="1" parent="fhWeLq2fKtromDVjiS6h-1">
          <mxGeometry y="47" width="219" height="26" as="geometry" />
        </mxCell>
        <mxCell id="fhWeLq2fKtromDVjiS6h-4" value="+ email: string" style="text;strokeColor=none;fillColor=none;align=left;verticalAlign=top;spacingLeft=4;spacingRight=4;overflow=hidden;rotatable=0;points=[[0,0.5],[1,0.5]];portConstraint=eastwest;whiteSpace=wrap;html=1;" vertex="1" parent="fhWeLq2fKtromDVjiS6h-1">
          <mxGeometry y="73" width="219" height="24" as="geometry" />
        </mxCell>
        <mxCell id="fhWeLq2fKtromDVjiS6h-5" value="" style="endArrow=open;endFill=1;endSize=12;html=1;rounded=0;entryX=-0.005;entryY=0.55;entryDx=0;entryDy=0;exitX=0.427;exitY=1.038;exitDx=0;exitDy=0;exitPerimeter=0;entryPerimeter=0;" edge="1" parent="1" source="tgD-yhzEI52AValManxv-16" target="tgD-yhzEI52AValManxv-18">
          <mxGeometry width="160" relative="1" as="geometry">
            <mxPoint x="73" y="180" as="sourcePoint" />
            <mxPoint x="174" y="180" as="targetPoint" />
            <Array as="points">
              <mxPoint x="106" y="295" />
            </Array>
          </mxGeometry>
        </mxCell>
        <mxCell id="fhWeLq2fKtromDVjiS6h-6" value="" style="endArrow=open;endFill=1;endSize=12;html=1;rounded=0;entryX=0.75;entryY=0;entryDx=0;entryDy=0;exitX=0.145;exitY=1.115;exitDx=0;exitDy=0;exitPerimeter=0;" edge="1" parent="1" source="fhWeLq2fKtromDVjiS6h-4" target="tgD-yhzEI52AValManxv-18">
          <mxGeometry width="160" relative="1" as="geometry">
            <mxPoint x="243" y="157" as="sourcePoint" />
            <mxPoint x="344" y="157" as="targetPoint" />
          </mxGeometry>
        </mxCell>
        <mxCell id="fhWeLq2fKtromDVjiS6h-8" value="AI Strategy" style="swimlane;fontStyle=1;align=center;verticalAlign=top;childLayout=stackLayout;horizontal=1;startSize=26;horizontalStack=0;resizeParent=1;resizeParentMax=0;resizeLast=0;collapsible=1;marginBottom=0;whiteSpace=wrap;html=1;fillColor=#ffcd28;gradientColor=#ffa500;strokeColor=#d79b00;" vertex="1" parent="1">
          <mxGeometry x="601" y="27" width="212" height="52" as="geometry" />
        </mxCell>
        <mxCell id="fhWeLq2fKtromDVjiS6h-9" value="+generate Suggestion(user,&amp;nbsp; events)" style="text;strokeColor=none;fillColor=none;align=left;verticalAlign=top;spacingLeft=4;spacingRight=4;overflow=hidden;rotatable=0;points=[[0,0.5],[1,0.5]];portConstraint=eastwest;whiteSpace=wrap;html=1;" vertex="1" parent="fhWeLq2fKtromDVjiS6h-8">
          <mxGeometry y="26" width="212" height="26" as="geometry" />
        </mxCell>
        <mxCell id="fhWeLq2fKtromDVjiS6h-10" value="" style="endArrow=open;endFill=1;endSize=12;html=1;rounded=0;entryX=-0.007;entryY=0.261;entryDx=0;entryDy=0;exitX=1;exitY=0.5;exitDx=0;exitDy=0;entryPerimeter=0;" edge="1" parent="1" source="fhWeLq2fKtromDVjiS6h-2" target="fhWeLq2fKtromDVjiS6h-9">
          <mxGeometry width="160" relative="1" as="geometry">
            <mxPoint x="570" y="203" as="sourcePoint" />
            <mxPoint x="572" y="296" as="targetPoint" />
          </mxGeometry>
        </mxCell>
        <mxCell id="fhWeLq2fKtromDVjiS6h-11" value="Ai based suggestion" style="swimlane;fontStyle=1;align=center;verticalAlign=top;childLayout=stackLayout;horizontal=1;startSize=26;horizontalStack=0;resizeParent=1;resizeParentMax=0;resizeLast=0;collapsible=1;marginBottom=0;whiteSpace=wrap;html=1;fillColor=#ffcd28;gradientColor=#ffa500;strokeColor=#d79b00;" vertex="1" parent="1">
          <mxGeometry x="457" y="178" width="212" height="52" as="geometry" />
        </mxCell>
        <mxCell id="fhWeLq2fKtromDVjiS6h-12" value="+generates suggestions(user, events)" style="text;strokeColor=none;fillColor=none;align=left;verticalAlign=top;spacingLeft=4;spacingRight=4;overflow=hidden;rotatable=0;points=[[0,0.5],[1,0.5]];portConstraint=eastwest;whiteSpace=wrap;html=1;" vertex="1" parent="fhWeLq2fKtromDVjiS6h-11">
          <mxGeometry y="26" width="212" height="26" as="geometry" />
        </mxCell>
        <mxCell id="fhWeLq2fKtromDVjiS6h-13" value="Rule based suggestion" style="swimlane;fontStyle=1;align=center;verticalAlign=top;childLayout=stackLayout;horizontal=1;startSize=26;horizontalStack=0;resizeParent=1;resizeParentMax=0;resizeLast=0;collapsible=1;marginBottom=0;whiteSpace=wrap;html=1;fillColor=#ffcd28;gradientColor=#ffa500;strokeColor=#d79b00;" vertex="1" parent="1">
          <mxGeometry x="606" y="261" width="212" height="52" as="geometry" />
        </mxCell>
        <mxCell id="fhWeLq2fKtromDVjiS6h-14" value="+generates suggestions(user, events)" style="text;strokeColor=none;fillColor=none;align=left;verticalAlign=top;spacingLeft=4;spacingRight=4;overflow=hidden;rotatable=0;points=[[0,0.5],[1,0.5]];portConstraint=eastwest;whiteSpace=wrap;html=1;" vertex="1" parent="fhWeLq2fKtromDVjiS6h-13">
          <mxGeometry y="26" width="212" height="26" as="geometry" />
        </mxCell>
        <mxCell id="fhWeLq2fKtromDVjiS6h-15" value="" style="endArrow=open;endFill=1;endSize=12;html=1;rounded=0;entryX=0.712;entryY=0;entryDx=0;entryDy=0;exitX=0.743;exitY=1.158;exitDx=0;exitDy=0;entryPerimeter=0;exitPerimeter=0;" edge="1" parent="1" source="fhWeLq2fKtromDVjiS6h-9" target="fhWeLq2fKtromDVjiS6h-13">
          <mxGeometry width="160" relative="1" as="geometry">
            <mxPoint x="728" y="154" as="sourcePoint" />
            <mxPoint x="788" y="156" as="targetPoint" />
          </mxGeometry>
        </mxCell>
        <mxCell id="fhWeLq2fKtromDVjiS6h-16" value="" style="endArrow=open;endFill=1;endSize=12;html=1;rounded=0;entryX=0.802;entryY=0;entryDx=0;entryDy=0;exitX=0.123;exitY=1.192;exitDx=0;exitDy=0;entryPerimeter=0;exitPerimeter=0;" edge="1" parent="1" source="fhWeLq2fKtromDVjiS6h-9" target="fhWeLq2fKtromDVjiS6h-11">
          <mxGeometry width="160" relative="1" as="geometry">
            <mxPoint x="658" y="123" as="sourcePoint" />
            <mxPoint x="718" y="125" as="targetPoint" />
          </mxGeometry>
        </mxCell>
        <mxCell id="fhWeLq2fKtromDVjiS6h-17" value="" style="endArrow=open;endFill=1;endSize=12;html=1;rounded=0;entryX=0.707;entryY=0.022;entryDx=0;entryDy=0;exitX=0.486;exitY=1.042;exitDx=0;exitDy=0;entryPerimeter=0;exitPerimeter=0;" edge="1" parent="1" source="fhWeLq2fKtromDVjiS6h-4" target="tgD-yhzEI52AValManxv-30">
          <mxGeometry width="160" relative="1" as="geometry">
            <mxPoint x="430.44" y="219" as="sourcePoint" />
            <mxPoint x="430.44" y="313" as="targetPoint" />
          </mxGeometry>
        </mxCell>
        <mxCell id="fhWeLq2fKtromDVjiS6h-18" value="" style="endArrow=open;endFill=1;endSize=12;html=1;rounded=0;exitX=0.009;exitY=0.158;exitDx=0;exitDy=0;exitPerimeter=0;entryX=0.992;entryY=0.18;entryDx=0;entryDy=0;entryPerimeter=0;" edge="1" parent="1" source="tgD-yhzEI52AValManxv-35" target="tgD-yhzEI52AValManxv-31">
          <mxGeometry width="160" relative="1" as="geometry">
            <mxPoint x="528" y="419" as="sourcePoint" />
            <mxPoint x="489" y="444" as="targetPoint" />
          </mxGeometry>
        </mxCell>
        <mxCell id="fhWeLq2fKtromDVjiS6h-19" value="Email Notification" style="swimlane;fontStyle=1;align=center;verticalAlign=top;childLayout=stackLayout;horizontal=1;startSize=26;horizontalStack=0;resizeParent=1;resizeParentMax=0;resizeLast=0;collapsible=1;marginBottom=0;whiteSpace=wrap;html=1;fillColor=#ffcd28;gradientColor=#ffa500;strokeColor=#d79b00;" vertex="1" parent="1">
          <mxGeometry x="604" y="575" width="212" height="86" as="geometry" />
        </mxCell>
        <mxCell id="fhWeLq2fKtromDVjiS6h-20" value="+Email Address: String" style="text;strokeColor=none;fillColor=none;align=left;verticalAlign=top;spacingLeft=4;spacingRight=4;overflow=hidden;rotatable=0;points=[[0,0.5],[1,0.5]];portConstraint=eastwest;whiteSpace=wrap;html=1;" vertex="1" parent="fhWeLq2fKtromDVjiS6h-19">
          <mxGeometry y="26" width="212" height="26" as="geometry" />
        </mxCell>
        <mxCell id="fhWeLq2fKtromDVjiS6h-21" value="" style="line;strokeWidth=1;fillColor=none;align=left;verticalAlign=middle;spacingTop=-1;spacingLeft=3;spacingRight=3;rotatable=0;labelPosition=right;points=[];portConstraint=eastwest;strokeColor=inherit;" vertex="1" parent="fhWeLq2fKtromDVjiS6h-19">
          <mxGeometry y="52" width="212" height="8" as="geometry" />
        </mxCell>
        <mxCell id="fhWeLq2fKtromDVjiS6h-22" value="+ send (to:user)" style="text;strokeColor=none;fillColor=none;align=left;verticalAlign=top;spacingLeft=4;spacingRight=4;overflow=hidden;rotatable=0;points=[[0,0.5],[1,0.5]];portConstraint=eastwest;whiteSpace=wrap;html=1;" vertex="1" parent="fhWeLq2fKtromDVjiS6h-19">
          <mxGeometry y="60" width="212" height="26" as="geometry" />
        </mxCell>
        <mxCell id="fhWeLq2fKtromDVjiS6h-23" value="inherits" style="text;html=1;align=center;verticalAlign=middle;resizable=0;points=[];autosize=1;strokeColor=none;fillColor=none;" vertex="1" parent="1">
          <mxGeometry x="572" y="517" width="57" height="26" as="geometry" />
        </mxCell>
        <mxCell id="fhWeLq2fKtromDVjiS6h-24" value="implements" style="text;html=1;align=center;verticalAlign=middle;resizable=0;points=[];autosize=1;strokeColor=none;fillColor=none;" vertex="1" parent="1">
          <mxGeometry x="547.5" y="129" width="79" height="26" as="geometry" />
        </mxCell>
        <mxCell id="fhWeLq2fKtromDVjiS6h-25" value="Logger" style="swimlane;fontStyle=1;align=center;verticalAlign=top;childLayout=stackLayout;horizontal=1;startSize=26;horizontalStack=0;resizeParent=1;resizeParentMax=0;resizeLast=0;collapsible=1;marginBottom=0;whiteSpace=wrap;html=1;fillColor=#ffcd28;gradientColor=#ffa500;strokeColor=#d79b00;" vertex="1" parent="1">
          <mxGeometry x="5" y="405" width="228" height="86" as="geometry" />
        </mxCell>
        <mxCell id="fhWeLq2fKtromDVjiS6h-26" value="+Addlog()" style="text;strokeColor=none;fillColor=none;align=left;verticalAlign=top;spacingLeft=4;spacingRight=4;overflow=hidden;rotatable=0;points=[[0,0.5],[1,0.5]];portConstraint=eastwest;whiteSpace=wrap;html=1;" vertex="1" parent="fhWeLq2fKtromDVjiS6h-25">
          <mxGeometry y="26" width="228" height="26" as="geometry" />
        </mxCell>
        <mxCell id="fhWeLq2fKtromDVjiS6h-27" value="" style="line;strokeWidth=1;fillColor=none;align=left;verticalAlign=middle;spacingTop=-1;spacingLeft=3;spacingRight=3;rotatable=0;labelPosition=right;points=[];portConstraint=eastwest;strokeColor=inherit;" vertex="1" parent="fhWeLq2fKtromDVjiS6h-25">
          <mxGeometry y="52" width="228" height="8" as="geometry" />
        </mxCell>
        <mxCell id="fhWeLq2fKtromDVjiS6h-28" value="+showlogs()" style="text;strokeColor=none;fillColor=none;align=left;verticalAlign=top;spacingLeft=4;spacingRight=4;overflow=hidden;rotatable=0;points=[[0,0.5],[1,0.5]];portConstraint=eastwest;whiteSpace=wrap;html=1;" vertex="1" parent="fhWeLq2fKtromDVjiS6h-25">
          <mxGeometry y="60" width="228" height="26" as="geometry" />
        </mxCell>
        <mxCell id="fhWeLq2fKtromDVjiS6h-29" value="" style="endArrow=classic;html=1;rounded=0;entryX=0.137;entryY=0.03;entryDx=0;entryDy=0;exitX=0.109;exitY=1.124;exitDx=0;exitDy=0;exitPerimeter=0;entryPerimeter=0;" edge="1" parent="1" source="tgD-yhzEI52AValManxv-16" target="fhWeLq2fKtromDVjiS6h-25">
          <mxGeometry width="50" height="50" relative="1" as="geometry">
            <mxPoint x="45" y="300" as="sourcePoint" />
            <mxPoint x="122" y="409" as="targetPoint" />
          </mxGeometry>
        </mxCell>
        <mxCell id="fhWeLq2fKtromDVjiS6h-30" value="" style="endArrow=classic;html=1;rounded=0;exitX=0.667;exitY=0.012;exitDx=0;exitDy=0;exitPerimeter=0;" edge="1" parent="1" source="tgD-yhzEI52AValManxv-42">
          <mxGeometry width="50" height="50" relative="1" as="geometry">
            <mxPoint x="175" y="553" as="sourcePoint" />
            <mxPoint x="163" y="494" as="targetPoint" />
          </mxGeometry>
        </mxCell>
        <mxCell id="O3LqNvS1LRqUJpRKrXD9-2" value="" style="endArrow=classic;html=1;rounded=0;entryX=0.453;entryY=1.077;entryDx=0;entryDy=0;entryPerimeter=0;exitX=0.554;exitY=0;exitDx=0;exitDy=0;exitPerimeter=0;" parent="1" source="tgD-yhzEI52AValManxv-46" target="tgD-yhzEI52AValManxv-45" edge="1">
          <mxGeometry width="50" height="50" relative="1" as="geometry">
            <mxPoint x="460" y="893" as="sourcePoint" />
            <mxPoint x="355" y="959" as="targetPoint" />
            <Array as="points">
              <mxPoint x="675" y="862" />
              <mxPoint x="467" y="864" />
              <mxPoint x="113" y="862" />
            </Array>
          </mxGeometry>
        </mxCell>
        <mxCell id="fhWeLq2fKtromDVjiS6h-31" value="inherits" style="text;html=1;align=center;verticalAlign=middle;resizable=0;points=[];autosize=1;strokeColor=none;fillColor=none;" vertex="1" parent="1">
          <mxGeometry x="258" y="835" width="57" height="26" as="geometry" />
        </mxCell>
        <mxCell id="fhWeLq2fKtromDVjiS6h-32" value="books many-to-many" style="text;html=1;align=center;verticalAlign=middle;resizable=0;points=[];autosize=1;strokeColor=none;fillColor=none;" vertex="1" parent="1">
          <mxGeometry x="280" y="164" width="130" height="26" as="geometry" />
        </mxCell>
        <mxCell id="fhWeLq2fKtromDVjiS6h-33" value="Database" style="swimlane;fontStyle=1;align=center;verticalAlign=top;childLayout=stackLayout;horizontal=1;startSize=26;horizontalStack=0;resizeParent=1;resizeParentMax=0;resizeLast=0;collapsible=1;marginBottom=0;whiteSpace=wrap;html=1;fillColor=#ffcd28;gradientColor=#ffa500;strokeColor=#d79b00;" vertex="1" parent="1">
          <mxGeometry x="16" y="943" width="247" height="132" as="geometry" />
        </mxCell>
        <mxCell id="fhWeLq2fKtromDVjiS6h-34" value="+connectionURL: String&lt;div&gt;+tables&lt;/div&gt;" style="text;strokeColor=none;fillColor=none;align=left;verticalAlign=top;spacingLeft=4;spacingRight=4;overflow=hidden;rotatable=0;points=[[0,0.5],[1,0.5]];portConstraint=eastwest;whiteSpace=wrap;html=1;" vertex="1" parent="fhWeLq2fKtromDVjiS6h-33">
          <mxGeometry y="26" width="247" height="42" as="geometry" />
        </mxCell>
        <mxCell id="fhWeLq2fKtromDVjiS6h-35" value="" style="line;strokeWidth=1;fillColor=none;align=left;verticalAlign=middle;spacingTop=-1;spacingLeft=3;spacingRight=3;rotatable=0;labelPosition=right;points=[];portConstraint=eastwest;strokeColor=inherit;" vertex="1" parent="fhWeLq2fKtromDVjiS6h-33">
          <mxGeometry y="68" width="247" height="8" as="geometry" />
        </mxCell>
        <mxCell id="fhWeLq2fKtromDVjiS6h-36" value="+connect()&lt;div&gt;+execute query(query)&lt;/div&gt;&lt;div&gt;+close()&lt;/div&gt;" style="text;strokeColor=none;fillColor=none;align=left;verticalAlign=top;spacingLeft=4;spacingRight=4;overflow=hidden;rotatable=0;points=[[0,0.5],[1,0.5]];portConstraint=eastwest;whiteSpace=wrap;html=1;" vertex="1" parent="fhWeLq2fKtromDVjiS6h-33">
          <mxGeometry y="76" width="247" height="56" as="geometry" />
        </mxCell>
        <mxCell id="fhWeLq2fKtromDVjiS6h-37" value="" style="endArrow=classic;html=1;rounded=0;exitX=0.27;exitY=1.099;exitDx=0;exitDy=0;exitPerimeter=0;entryX=0.215;entryY=0.018;entryDx=0;entryDy=0;entryPerimeter=0;" edge="1" parent="1" source="tgD-yhzEI52AValManxv-45" target="fhWeLq2fKtromDVjiS6h-33">
          <mxGeometry width="50" height="50" relative="1" as="geometry">
            <mxPoint x="42" y="852" as="sourcePoint" />
            <mxPoint x="40" y="952" as="targetPoint" />
          </mxGeometry>
        </mxCell>
        <mxCell id="fhWeLq2fKtromDVjiS6h-38" value="connects" style="text;html=1;align=center;verticalAlign=middle;resizable=0;points=[];autosize=1;strokeColor=none;fillColor=none;" vertex="1" parent="1">
          <mxGeometry x="8" y="859" width="66" height="26" as="geometry" />
        </mxCell>
      </root>
    </mxGraphModel>
  </diagram>
</mxfile>
